<?xml version="1.0" encoding="UTF-8" standalone="no"?>
<!DOCTYPE svg PUBLIC "-//W3C//DTD SVG 1.1//EN" "http://www.w3.org/Graphics/SVG/1.1/DTD/svg11.dtd">
<svg width="100%" height="100%" viewBox="0 0 667 734" version="1.1" xmlns="http://www.w3.org/2000/svg" xmlns:xlink="http://www.w3.org/1999/xlink" xml:space="preserve" xmlns:serif="http://www.serif.com/" style="fill-rule:evenodd;clip-rule:evenodd;stroke-linecap:round;stroke-linejoin:round;">
    <g transform="matrix(1,0,0,1,-66.6667,-33.3333)">
        <g transform="matrix(33.3333,0,0,33.3333,0,0)">
            <path d="M21,5C21,6.657 16.971,8 12,8C7.029,8 3,6.657 3,5M21,5C21,3.343 16.971,2 12,2C7.029,2 3,3.343 3,5M21,5L21,19C21,20.66 17,22 12,22C7,22 3,20.66 3,19L3,5M21,9.72C21,11.38 17,12.72 12,12.72C7,12.72 3,11.38 3,9.72M21,14.44C21,16.1 17,17.44 12,17.44C7,17.44 3,16.1 3,14.44" style="fill:none;fill-rule:nonzero;stroke:rgb(203,166,247);stroke-width:2px;"/>
        </g>
    </g>
</svg>
